<svg version="1.1" xmlns="http://www.w3.org/2000/svg" xmlns:xlink="http://www.w3.org/1999/xlink" viewBox="0 0 500 800">
    <!-------------------- Structure --------------------->
    <g>
        <!-- Fridge outline -->
        <path
            d="M30 2.5 L470 2.5 Q497.5 2.5 497.5 30 L497.5 770 Q497.5 797.5 470 797.5 L30 797.5 Q2.5 797.5 2.5 770 L2.5 30 Q2.5 2.5 30 2.5"
            stroke="black" stroke-width="5" fill="#EFEFEF" />

        <!-- Fridge opening -->
        <path
            d="M45 230 L455 230 Q470 230 470 245 L470 715 Q470 730 455 730 L45 730 Q30 730 30 715 L30 245 Q30 230 45 230"
            stroke="black" stroke-width="5" fill="#CFCFCF" />

        <!-- Freezer opening -->
        <path d="M45 30 L455 30 Q470 30 470 45 L470 185 Q470 200 455 200 L45 200 Q30 200 30 185 L30 45 Q30 30 45 30"
            stroke="black" stroke-width="5" fill="#CFCFCF" />
    </g>

    <!-------------------- 3D effects -------------------->
    <g>
        <!-- Fridge 3D -->
        <path d="M35 235 L50 255 L450 255 M465 235 L450 255 L450 710 M465 725 L450 710 L50 710 M35 725 L50 710 L50 255"
            stroke="black" stroke-width="3" fill="none" />
        <!-- Freezer 3D -->
        <path d="M50 200 L50 60 M35 35 L50 60 L450 60 M465 35 L450 60 L450 200" stroke="black" stroke-width="3"
            fill="none" />
    </g>

    <!------------------- Ventilation -------------------->
    <g>
        <!-- Ventilation outline -->
        <path
            d="M35 745 L465 745 Q470 745 470 750 L470 780 Q470 785 465 785 L35 785 Q30 785 30 780 L30 750 Q30 745 35 745"
            stroke="black" stroke-width="5" fill="#949494" />

        <!-- Ventilation grill -->
        <path
            d="M40 755 L40 775 M47.5 755 L47.5 775 M55 755 L55 775 M62.5 755 L62.5 775 M70 755 L70 775 M77.5 755 L77.5 775 M85 755 L85 775 M92.5 755 L92.5 775 M100 755 L100 775 M107.5 755 L107.5 775 M115 755 L115 775 M122.5 755 L122.5 775 M130 755 L130 775 M137.5 755 L137.5 775 M145 755 L145 775 M152.5 755 L152.5 775 M160 755 L160 775 M167.5 755 L167.5 775 M175 755 L175 775 M182.5 755 L182.5 775 M190 755 L190 775 M197.5 755 L197.5 775 M205 755 L205 775 M212.5 755 L212.5 775 M220 755 L220 775 M227.5 755 L227.5 775 M235 755 L235 775 M242.5 755 L242.5 775 M250 755 L250 775 M257.5 755 L257.5 775 M265 755 L265 775 M272.5 755 L272.5 775 M280 755 L280 775 M287.5 755 L287.5 775 M295 755 L295 775 M302.5 755 L302.5 775 M310 755 L310 775 M317.5 755 L317.5 775 M325 755 L325 775 M332.5 755 L332.5 775 M340 755 L340 775 M347.5 755 L347.5 775 M355 755 L355 775 M362.5 755 L362.5 775 M370 755 L370 775 M377.5 755 L377.5 775 M385 755 L385 775 M392.5 755 L392.5 775 M400 755 L400 775 M407.5 755 L407.5 775 M415 755 L415 775 M422.5 755 L422.5 775 M430 755 L430 775 M437.5 755 L437.5 775 M445 755 L445 775 M452.5 755 L452.5 775 M460 755 L460 775"
            stroke="black" stroke-width="3" fill="none" stroke-linecap="round" />
    </g>

    <!------------------ Vegetable tray ------------------>
    <g>
        <!-- Vegetable tray visible -->
        <path d="M40 640 L55 620 L445 620 L460 640 L460 725 L40 725 Z L460 640" stroke="#585858" stroke-width="4"
            fill="#777777" fill-opacity="0.5" />

        <!-- Vegetable tray obstructed -->
        <path d="M55 620 L55 710 L40 725 M55 710 L445 710 L460 725 M445 710 L445 620" stroke="#585858" stroke-width="3"
            fill="#777777" fill-opacity="0.5" />

        <!-- Vegetable tray handle -->
        <path d="M235 655 L265 655 Q250 685 235 655" stroke="#585858" stroke-width="3" fill="none" />
    </g>

    <!-------------------- Platforms --------------------->
    <g>
        <!-- Fridge top -->
        <path
            d="M30 330 L470 330 M30 330 L50 350 M52 330 L70 350 M74 330 L90 350 M96 330 L110 350 M118 330 L130 350 M140 330 L150 350 M162 330 L170 350 M184 330 L190 350 M206 330 L210 350 M228 330 L230 350 M250 330 L250 350 M272 330 L270 350 M294 330 L290 350 M316 330 L310 350 M338 330 L330 350 M360 330 L350 350 M382 330 L370 350 M404 330 L390 350 M426 330 L410 350 M448 330 L430 350 M470 330 L450 350"
            stroke="black" stroke-width="4" fill="none" />

        <!-- Fridge top middle -->
        <path
            d="M30 430 L470 430 M30 430 L50 440 M52 430 L70 440 M74 430 L90 440 M96 430 L110 440 M118 430 L130 440 M140 430 L150 440 M162 430 L170 440 M184 430 L190 440 M206 430 L210 440 M228 430 L230 440 M250 430 L250 440 M272 430 L270 440 M294 430 L290 440 M316 430 L310 440 M338 430 L330 440 M360 430 L350 440 M382 430 L370 440 M404 430 L390 440 M426 430 L410 440 M448 430 L430 440 M470 430 L450 440"
            stroke="black" stroke-width="4" fill="none" />

        <!-- Fridge bottom middle -->
        <path
            d="M30 530 L470 530 M30 530 L50 520 M52 530 L70 520 M74 530 L90 520 M96 530 L110 520 M118 530 L130 520 M140 530 L150 520 M162 530 L170 520 M184 530 L190 520 M206 530 L210 520 M228 530 L230 520 M250 530 L250 520 M272 530 L270 520 M294 530 L290 520 M316 530 L310 520 M338 530 L330 520 M360 530 L350 520 M382 530 L370 520 M404 530 L390 520 M426 530 L410 520 M448 530 L430 520 M470 530 L450 520"
            stroke="black" stroke-width="4" fill="none" />

        <!-- Fridge bottom -->
        <path
            d="M30 630 L470 630 M30 630 L50 610 M52 630 L70 610 M74 630 L90 610 M96 630 L110 610 M118 630 L130 610 M140 630 L150 610 M162 630 L170 610 M184 630 L190 610 M206 630 L210 610 M228 630 L230 610 M250 630 L250 610 M272 630 L270 610 M294 630 L290 610 M316 630 L310 610 M338 630 L330 610 M360 630 L350 610 M382 630 L370 610 M404 630 L390 610 M426 630 L410 610 M448 630 L430 610 M470 630 L450 610"
            stroke="black" stroke-width="4" fill="none" />

        <!-- Freezer platform -->
        <path
            d="M30 115 L470 115 M30 115 L50 140 M52 115 L70 140 M74 115 L90 140 M96 115 L110 140 M118 115 L130 140 M140 115 L150 140 M162 115 L170 140 M184 115 L190 140 M206 115 L210 140 M228 115 L230 140 M250 115 L250 140 M272 115 L270 140 M294 115 L290 140 M316 115 L310 140 M338 115 L330 140 M360 115 L350 140 M382 115 L370 140 M404 115 L390 140 M426 115 L410 140 M448 115 L430 140 M470 115 L450 140"
            stroke="black" stroke-width="4" fill="none" />
    </g>
</svg>